<svg width="121" height="121" viewBox="0 0 121 121" fill="none" xmlns="http://www.w3.org/2000/svg">
<mask id="mask0" mask-type="alpha" maskUnits="userSpaceOnUse" x="0" y="0" width="121" height="121">
<rect x="0.415039" y="0.688965" width="120" height="120" fill="#C4C4C4"/>
</mask>
<g mask="url(#mask0)">
<rect x="24.2788" y="23.8352" width="72.2643" height="72.2643" rx="2.29416" stroke="#003C6A" stroke-width="2.29416"/>
<path d="M61.8451 30.4287C61.8451 29.6368 61.2031 28.9949 60.4112 28.9949C59.6193 28.9949 58.9774 29.6368 58.9774 30.4287H61.8451ZM58.9774 74.3252C58.9774 75.1171 59.6193 75.759 60.4112 75.759C61.2031 75.759 61.8451 75.1171 61.8451 74.3252H58.9774ZM58.9774 30.4287V74.3252H61.8451V30.4287H58.9774Z" fill="#003C6A"/>
<path d="M69.1116 35.9428C69.7983 35.5485 70.0352 34.6721 69.6408 33.9854C69.2465 33.2987 68.3701 33.0617 67.6834 33.4561L69.1116 35.9428ZM59.6972 38.0427C59.0105 38.4371 58.7735 39.3135 59.1679 40.0002C59.5623 40.6869 60.4387 40.9239 61.1254 40.5295L59.6972 38.0427ZM67.6834 33.4561L59.6972 38.0427L61.1254 40.5295L69.1116 35.9428L67.6834 33.4561Z" fill="#003C6A"/>
<path d="M51.7108 35.9428C51.0241 35.5485 50.7872 34.6721 51.1816 33.9854C51.576 33.2987 52.4523 33.0617 53.139 33.4561L51.7108 35.9428ZM61.1252 38.0427C61.8119 38.4371 62.0489 39.3135 61.6545 40.0002C61.2601 40.6869 60.3837 40.9239 59.697 40.5295L61.1252 38.0427ZM53.139 33.4561L61.1252 38.0427L59.697 40.5295L51.7108 35.9428L53.139 33.4561Z" fill="#003C6A"/>
<path d="M69.1116 68.8113C69.7983 69.2057 70.0352 70.0821 69.6409 70.7688C69.2465 71.4555 68.3701 71.6925 67.6834 71.2981L69.1116 68.8113ZM59.6972 66.7114C59.0105 66.317 58.7735 65.4407 59.1679 64.754C59.5623 64.0673 60.4387 63.8303 61.1254 64.2247L59.6972 66.7114ZM67.6834 71.2981L59.6972 66.7114L61.1254 64.2247L69.1116 68.8113L67.6834 71.2981Z" fill="#003C6A"/>
<path d="M51.7109 68.8113C51.0242 69.2057 50.7872 70.0821 51.1816 70.7688C51.576 71.4555 52.4524 71.6925 53.1391 71.2981L51.7109 68.8113ZM61.1253 66.7114C61.812 66.317 62.0489 65.4407 61.6545 64.754C61.2601 64.0673 60.3838 63.8303 59.6971 64.2247L61.1253 66.7114ZM53.1391 71.2981L61.1253 66.7114L59.6971 64.2247L51.7109 68.8113L53.1391 71.2981Z" fill="#003C6A"/>
<path d="M42.1203 40.1611C41.4345 39.7651 40.5576 40.0001 40.1616 40.6859C39.7657 41.3717 40.0007 42.2486 40.6865 42.6446L42.1203 40.1611ZM78.7019 64.5928C79.3877 64.9888 80.2647 64.7538 80.6606 64.068C81.0566 63.3822 80.8216 62.5053 80.1358 62.1093L78.7019 64.5928ZM40.6865 42.6446L78.7019 64.5928L80.1358 62.1093L42.1203 40.1611L40.6865 42.6446Z" fill="#003C6A"/>
<path d="M50.5288 36.6253C50.5306 35.8334 49.8901 35.19 49.0982 35.1882C48.3063 35.1864 47.6629 35.8269 47.6611 36.6188L50.5288 36.6253ZM47.6402 45.8284C47.6384 46.6203 48.2789 47.2637 49.0707 47.2655C49.8626 47.2673 50.5061 46.6268 50.5079 45.8349L47.6402 45.8284ZM47.6611 36.6188L47.6402 45.8284L50.5079 45.8349L50.5288 36.6253L47.6611 36.6188Z" fill="#003C6A"/>
<path d="M41.8284 51.6945C41.1435 52.092 40.2661 51.859 39.8686 51.1741C39.471 50.4892 39.704 49.6117 40.3889 49.2142L41.8284 51.6945ZM48.3542 44.5913C49.0391 44.1938 49.9165 44.4268 50.314 45.1117C50.7115 45.7966 50.4786 46.674 49.7937 47.0715L48.3542 44.5913ZM40.3889 49.2142L48.3542 44.5913L49.7937 47.0715L41.8284 51.6945L40.3889 49.2142Z" fill="#003C6A"/>
<path d="M78.9936 53.0594C79.6785 52.6619 80.556 52.8949 80.9535 53.5798C81.351 54.2647 81.118 55.1422 80.4331 55.5397L78.9936 53.0594ZM72.4679 60.1626C71.783 60.5601 70.9055 60.3271 70.508 59.6422C70.1105 58.9573 70.3435 58.0799 71.0284 57.6824L72.4679 60.1626ZM80.4331 55.5397L72.4679 60.1626L71.0284 57.6824L78.9936 53.0594L80.4331 55.5397Z" fill="#003C6A"/>
<path d="M70.2929 68.1283C70.2911 68.9202 70.9316 69.5636 71.7235 69.5654C72.5154 69.5672 73.1588 68.9267 73.1606 68.1349L70.2929 68.1283ZM73.1816 58.9253C73.1834 58.1334 72.5429 57.49 71.751 57.4882C70.9591 57.4864 70.3157 58.1269 70.3139 58.9188L73.1816 58.9253ZM73.1606 68.1349L73.1816 58.9253L70.3139 58.9188L70.2929 68.1283L73.1606 68.1349Z" fill="#003C6A"/>
<path d="M80.1357 42.6446C80.8215 42.2486 81.0565 41.3717 80.6605 40.6859C80.2646 40.0001 79.3876 39.7651 78.7018 40.1611L80.1357 42.6446ZM40.6864 62.1093C40.0006 62.5053 39.7656 63.3822 40.1615 64.068C40.5575 64.7538 41.4344 64.9888 42.1202 64.5928L40.6864 62.1093ZM78.7018 40.1611L40.6864 62.1093L42.1202 64.5928L80.1357 42.6446L78.7018 40.1611Z" fill="#003C6A"/>
<path d="M78.9934 51.6942C79.6783 52.0917 80.5558 51.8587 80.9533 51.1739C81.3508 50.489 81.1178 49.6115 80.4329 49.214L78.9934 51.6942ZM72.4677 44.5911C71.7828 44.1936 70.9053 44.4265 70.5078 45.1114C70.1103 45.7963 70.3433 46.6738 71.0282 47.0713L72.4677 44.5911ZM80.4329 49.214L72.4677 44.5911L71.0282 47.0713L78.9934 51.6942L80.4329 49.214Z" fill="#003C6A"/>
<path d="M70.2939 36.6261C70.2921 35.8342 70.9326 35.1908 71.7245 35.189C72.5164 35.1872 73.1598 35.8276 73.1616 36.6195L70.2939 36.6261ZM73.1825 45.8291C73.1843 46.621 72.5438 47.2644 71.7519 47.2662C70.96 47.268 70.3166 46.6275 70.3148 45.8356L73.1825 45.8291ZM73.1616 36.6195L73.1825 45.8291L70.3148 45.8356L70.2939 36.6261L73.1616 36.6195Z" fill="#003C6A"/>
<path d="M50.5287 68.1281C50.5305 68.92 49.89 69.5634 49.0981 69.5652C48.3062 69.567 47.6628 68.9265 47.661 68.1346L50.5287 68.1281ZM47.64 58.925C47.6382 58.1332 48.2787 57.4897 49.0706 57.4879C49.8625 57.4861 50.5059 58.1266 50.5077 58.9185L47.64 58.925ZM47.661 68.1346L47.64 58.925L50.5077 58.9185L50.5287 68.1281L47.661 68.1346Z" fill="#003C6A"/>
<path d="M41.8283 53.059C41.1434 52.6614 40.2659 52.8944 39.8684 53.5793C39.4709 54.2642 39.7039 55.1417 40.3888 55.5392L41.8283 53.059ZM48.354 60.1621C49.0389 60.5596 49.9164 60.3266 50.3139 59.6417C50.7114 58.9568 50.4784 58.0794 49.7935 57.6819L48.354 60.1621ZM40.3888 55.5392L48.354 60.1621L49.7935 57.6819L41.8283 53.059L40.3888 55.5392Z" fill="#003C6A"/>
<path d="M52.3862 78.6594C52.0435 78.6594 51.7725 78.8601 51.5732 79.2615C51.3769 79.6628 51.2788 80.2209 51.2788 80.9358C51.2788 82.4241 51.667 83.1682 52.4434 83.1682C52.7832 83.1682 53.1392 83.0598 53.5112 82.843V83.9065C53.1978 84.1145 52.7964 84.2185 52.3071 84.2185C51.5835 84.2185 51.0269 83.9314 50.6372 83.3572C50.2505 82.78 50.0571 81.97 50.0571 80.927C50.0571 79.884 50.2563 79.071 50.6548 78.488C51.0561 77.905 51.6128 77.6135 52.3247 77.6135C52.5591 77.6135 52.7832 77.6458 52.9971 77.7102C53.2139 77.7747 53.4453 77.8875 53.6914 78.0486L53.2959 79.0198C53.1641 78.929 53.0234 78.8469 52.874 78.7737C52.7246 78.6975 52.562 78.6594 52.3862 78.6594ZM53.854 79.2351H55.0669L55.7436 81.9993C55.811 82.2454 55.8652 82.5896 55.9062 83.032H55.9326C55.9355 82.9617 55.9487 82.8372 55.9722 82.6584C55.9956 82.4768 56.0146 82.3347 56.0293 82.2322C56.0439 82.1296 56.2461 81.1306 56.6357 79.2351H57.8662L56.4644 84.4822C56.2944 85.1267 56.0688 85.5896 55.7876 85.8708C55.5063 86.1521 55.1313 86.2927 54.6626 86.2927C54.4311 86.2927 54.2246 86.2678 54.043 86.218V85.238C54.1631 85.2732 54.2978 85.2908 54.4473 85.2908C54.8398 85.2908 55.0977 85.033 55.2207 84.5173L55.3042 84.2097L53.854 79.2351ZM62.0366 79.2351V84.1306H60.8589V80.1799H59.5361V84.1306H58.3672V79.2351H62.0366ZM64.8403 84.2185C64.228 84.2185 63.7446 84.0017 63.3901 83.5681C63.0386 83.1316 62.8628 82.5149 62.8628 81.718C62.8628 80.9094 63.0225 80.2781 63.3418 79.824C63.6611 79.3699 64.1064 79.1428 64.6777 79.1428C65.2109 79.1428 65.6313 79.3376 65.939 79.7273C66.2466 80.114 66.4004 80.6575 66.4004 81.3577V81.9817H64.0493C64.0581 82.4182 64.1475 82.7434 64.3174 82.9573C64.4873 83.1682 64.7217 83.2737 65.0205 83.2737C65.4014 83.2737 65.791 83.155 66.1894 82.9177V83.8801C65.8144 84.1057 65.3647 84.2185 64.8403 84.2185ZM64.6689 80.0437C64.5019 80.0437 64.3643 80.1331 64.2559 80.3118C64.1475 80.4875 64.0845 80.7615 64.0669 81.1335H65.2534C65.2476 80.7761 65.1934 80.5051 65.0908 80.3206C64.9883 80.136 64.8477 80.0437 64.6689 80.0437ZM69.3579 84.2185C69.147 84.2185 68.9595 84.1716 68.7954 84.0779C68.6343 83.9812 68.4834 83.8127 68.3428 83.5725H68.2812C68.3281 83.9709 68.3516 84.2112 68.3516 84.2932V86.2927H67.1738V79.2351H68.0791L68.2812 79.8723H68.334C68.5771 79.386 68.9302 79.1428 69.3931 79.1428C69.8384 79.1428 70.187 79.364 70.439 79.8064C70.6909 80.2458 70.8169 80.8684 70.8169 81.6741C70.8169 82.468 70.6865 83.0906 70.4258 83.5417C70.165 83.9929 69.8091 84.2185 69.3579 84.2185ZM68.9976 80.136C68.769 80.136 68.6035 80.2429 68.501 80.4568C68.4014 80.6677 68.3486 81.0193 68.3428 81.5115V81.6653C68.3428 82.2043 68.394 82.5969 68.4966 82.843C68.5991 83.0891 68.769 83.2122 69.0063 83.2122C69.4165 83.2122 69.6216 82.6936 69.6216 81.6565C69.6216 81.1467 69.5703 80.7659 69.4678 80.5139C69.3682 80.262 69.2114 80.136 68.9976 80.136ZM31.5649 90.1423C31.8315 90.1423 32.0293 90.0999 32.1582 90.0149C32.29 89.9299 32.356 89.7834 32.356 89.5754C32.356 89.2385 32.1318 89.0701 31.6836 89.0701C31.5254 89.0701 31.3789 89.0935 31.2441 89.1404C31.1094 89.1843 30.9644 89.2546 30.8091 89.3513L30.3872 88.5032C30.7944 88.2629 31.2471 88.1428 31.7451 88.1428C32.2637 88.1428 32.6768 88.2585 32.9844 88.49C33.292 88.7214 33.4458 89.0378 33.4458 89.4392C33.4458 89.9988 33.1367 90.365 32.5186 90.5378V90.573C32.8584 90.6521 33.1177 90.7971 33.2964 91.0081C33.4751 91.219 33.5644 91.4885 33.5644 91.8167C33.5644 92.2502 33.3989 92.593 33.0679 92.845C32.7397 93.094 32.2842 93.2185 31.7012 93.2185C31.4316 93.2185 31.1738 93.1892 30.9277 93.1306C30.6846 93.0691 30.4795 92.9915 30.3125 92.8977V91.9177C30.7197 92.1433 31.146 92.2561 31.5913 92.2561C32.1245 92.2561 32.3911 92.0583 32.3911 91.6628C32.3911 91.4519 32.3267 91.2922 32.1978 91.1838C32.0718 91.0725 31.8608 91.0168 31.5649 91.0168H31.0859V90.1423H31.5649ZM36.7637 93.1306L36.5308 92.4626H36.5044C36.3315 92.7498 36.1528 92.9475 35.9683 93.0559C35.7837 93.1643 35.5508 93.2185 35.2695 93.2185C34.9092 93.2185 34.625 93.0837 34.417 92.8142C34.2119 92.5447 34.1094 92.1697 34.1094 91.6892C34.1094 91.1736 34.25 90.7913 34.5312 90.5422C34.8154 90.2903 35.2388 90.1511 35.8013 90.1248L36.4517 90.0984V89.7468C36.4517 89.2898 36.2539 89.0613 35.8584 89.0613C35.5654 89.0613 35.2285 89.1755 34.8477 89.4041L34.4434 88.5955C34.9297 88.2878 35.4585 88.134 36.0298 88.134C36.5483 88.134 36.9424 88.2834 37.2119 88.5823C37.4844 88.8782 37.6206 89.2986 37.6206 89.8435V93.1306H36.7637ZM35.7485 92.3044C35.9624 92.3044 36.1323 92.2092 36.2583 92.0188C36.3872 91.8254 36.4517 91.5691 36.4517 91.2498V90.8367L36.0913 90.8542C35.8247 90.8689 35.6284 90.9451 35.5024 91.0828C35.3794 91.2205 35.3179 91.4255 35.3179 91.698C35.3179 92.1023 35.4614 92.3044 35.7485 92.3044ZM43.6235 93.1306H42.5776V89.1536C42.4927 89.6282 42.3726 90.1614 42.2173 90.7532L41.5801 93.1306H40.5869L39.9497 90.7444C39.812 90.2317 39.6919 89.7014 39.5894 89.1536V93.1306H38.5654V88.2351H40.2485L40.8418 90.5203C40.9707 91.03 41.0483 91.5046 41.0747 91.9441C41.0864 91.7947 41.1172 91.5852 41.167 91.3157C41.2197 91.0461 41.2783 90.781 41.3428 90.5203L41.9492 88.2351H43.6235V93.1306ZM48.229 90.6741C48.229 91.4768 48.0591 92.1023 47.7192 92.5505C47.3794 92.9958 46.9136 93.2185 46.3218 93.2185C45.9468 93.2185 45.6157 93.116 45.3286 92.9109C45.0415 92.7058 44.8203 92.4114 44.665 92.0276C44.5098 91.6409 44.4321 91.1897 44.4321 90.6741C44.4321 89.8801 44.6006 89.2605 44.9375 88.8152C45.2744 88.3669 45.7417 88.1428 46.3394 88.1428C46.9165 88.1428 47.375 88.3713 47.7148 88.8284C48.0576 89.2825 48.229 89.8977 48.229 90.6741ZM45.6274 90.6741C45.6274 91.1838 45.6831 91.5691 45.7944 91.8298C45.9058 92.0906 46.0845 92.2209 46.3306 92.2209C46.7993 92.2209 47.0337 91.7053 47.0337 90.6741C47.0337 90.1614 46.9766 89.7791 46.8623 89.5271C46.751 89.2722 46.5737 89.1448 46.3306 89.1448C46.0845 89.1448 45.9058 89.2722 45.7944 89.5271C45.6831 89.7791 45.6274 90.1614 45.6274 90.6741ZM51.2349 93.2185C51.0239 93.2185 50.8364 93.1716 50.6724 93.0779C50.5112 92.9812 50.3603 92.8127 50.2197 92.5725H50.1582C50.2051 92.9709 50.2285 93.2112 50.2285 93.2932V95.2927H49.0508V88.2351H49.9561L50.1582 88.8723H50.2109C50.4541 88.386 50.8071 88.1428 51.27 88.1428C51.7153 88.1428 52.064 88.364 52.3159 88.8064C52.5679 89.2458 52.6938 89.8684 52.6938 90.6741C52.6938 91.468 52.5635 92.0906 52.3027 92.5417C52.042 92.9929 51.686 93.2185 51.2349 93.2185ZM50.8745 89.136C50.646 89.136 50.4805 89.2429 50.3779 89.4568C50.2783 89.6677 50.2256 90.0193 50.2197 90.5115V90.6653C50.2197 91.2043 50.271 91.5969 50.3735 91.843C50.4761 92.0891 50.646 92.2122 50.8833 92.2122C51.2935 92.2122 51.4985 91.6936 51.4985 90.6565C51.4985 90.1467 51.4473 89.7659 51.3447 89.5139C51.2451 89.262 51.0884 89.136 50.8745 89.136ZM55.915 93.1306L55.6821 92.4626H55.6558C55.4829 92.7498 55.3042 92.9475 55.1196 93.0559C54.9351 93.1643 54.7021 93.2185 54.4209 93.2185C54.0605 93.2185 53.7764 93.0837 53.5684 92.8142C53.3633 92.5447 53.2607 92.1697 53.2607 91.6892C53.2607 91.1736 53.4014 90.7913 53.6826 90.5422C53.9668 90.2903 54.3901 90.1511 54.9526 90.1248L55.603 90.0984V89.7468C55.603 89.2898 55.4053 89.0613 55.0098 89.0613C54.7168 89.0613 54.3799 89.1755 53.999 89.4041L53.5947 88.5955C54.0811 88.2878 54.6099 88.134 55.1811 88.134C55.6997 88.134 56.0937 88.2834 56.3633 88.5823C56.6357 88.8782 56.772 89.2986 56.772 89.8435V93.1306H55.915ZM54.8999 92.3044C55.1138 92.3044 55.2837 92.2092 55.4097 92.0188C55.5386 91.8254 55.603 91.5691 55.603 91.2498V90.8367L55.2427 90.8542C54.9761 90.8689 54.7798 90.9451 54.6538 91.0828C54.5308 91.2205 54.4692 91.4255 54.4692 91.698C54.4692 92.1023 54.6128 92.3044 54.8999 92.3044ZM59.7471 90.5818V88.2351H60.8721V90.5818L62.0981 88.2351H63.311L61.9971 90.5554L63.3945 93.1306H62.1245L60.8721 90.6125V93.1306H59.7471V90.6125L58.4902 93.1306H57.2202L58.6133 90.5554L57.3081 88.2351H58.5254L59.7471 90.5818ZM64.981 88.2351V90.5027C64.981 90.7839 64.9458 91.2512 64.8755 91.9045L66.4663 88.2351H67.8989V93.1306H66.8091V90.8279C66.8091 90.4822 66.8428 90.0164 66.9102 89.4304L65.3149 93.1306H63.8955V88.2351H64.981ZM72.3857 89.5051C72.3857 89.7805 72.3037 90.0105 72.1396 90.1951C71.9785 90.3767 71.7427 90.4939 71.4321 90.5466V90.5818C71.7749 90.6257 72.043 90.7444 72.2363 90.9377C72.4326 91.1282 72.5308 91.3757 72.5308 91.6804C72.5308 92.1492 72.3652 92.5081 72.0342 92.7571C71.7031 93.0061 71.23 93.1306 70.6147 93.1306H68.8965V88.2351H70.606C71.7925 88.2351 72.3857 88.6584 72.3857 89.5051ZM71.3179 91.6101C71.3179 91.4021 71.2505 91.2527 71.1157 91.1619C70.981 91.071 70.7773 91.0256 70.5049 91.0256H70.0654V92.2561H70.5225C71.0527 92.2561 71.3179 92.0408 71.3179 91.6101ZM71.1904 89.6106C71.1904 89.2883 70.9766 89.1272 70.5488 89.1272H70.0654V90.1599H70.417C70.6748 90.1599 70.8682 90.1189 70.9971 90.0369C71.126 89.9519 71.1904 89.8098 71.1904 89.6106ZM75.6553 93.1306L75.4224 92.4626H75.396C75.2231 92.7498 75.0444 92.9475 74.8599 93.0559C74.6753 93.1643 74.4424 93.2185 74.1611 93.2185C73.8008 93.2185 73.5166 93.0837 73.3086 92.8142C73.1035 92.5447 73.001 92.1697 73.001 91.6892C73.001 91.1736 73.1416 90.7913 73.4228 90.5422C73.707 90.2903 74.1304 90.1511 74.6929 90.1248L75.3433 90.0984V89.7468C75.3433 89.2898 75.1455 89.0613 74.75 89.0613C74.457 89.0613 74.1201 89.1755 73.7393 89.4041L73.335 88.5955C73.8213 88.2878 74.3501 88.134 74.9214 88.134C75.4399 88.134 75.834 88.2834 76.1035 88.5823C76.376 88.8782 76.5122 89.2986 76.5122 89.8435V93.1306H75.6553ZM74.6401 92.3044C74.854 92.3044 75.0239 92.2092 75.1499 92.0188C75.2788 91.8254 75.3433 91.5691 75.3433 91.2498V90.8367L74.9829 90.8542C74.7163 90.8689 74.52 90.9451 74.394 91.0828C74.271 91.2205 74.2095 91.4255 74.2095 91.698C74.2095 92.1023 74.353 92.3044 74.6401 92.3044ZM78.626 88.2351V90.1423H79.9487V88.2351H81.1265V93.1306H79.9487V91.0784H78.626V93.1306H77.457V88.2351H78.626ZM83.2007 88.2351V90.5027C83.2007 90.7839 83.1655 91.2512 83.0952 91.9045L84.686 88.2351H86.1186V93.1306H85.0288V90.8279C85.0288 90.4822 85.0625 90.0164 85.1299 89.4304L83.5347 93.1306H82.1152V88.2351H83.2007ZM88.9224 93.2185C88.3101 93.2185 87.8267 93.0017 87.4722 92.5681C87.1206 92.1316 86.9448 91.5149 86.9448 90.718C86.9448 89.9094 87.1045 89.2781 87.4238 88.824C87.7432 88.3699 88.1885 88.1428 88.7598 88.1428C89.293 88.1428 89.7134 88.3376 90.021 88.7273C90.3286 89.114 90.4824 89.6575 90.4824 90.3577V90.9817H88.1313C88.1401 91.4182 88.2295 91.7434 88.3994 91.9573C88.5693 92.1682 88.8037 92.2737 89.1025 92.2737C89.4834 92.2737 89.873 92.155 90.2715 91.9177V92.8801C89.8965 93.1057 89.4468 93.2185 88.9224 93.2185ZM88.751 89.0437C88.584 89.0437 88.4463 89.1331 88.3379 89.3118C88.2295 89.4875 88.1665 89.7615 88.1489 90.1335H89.3354C89.3296 89.7761 89.2754 89.5051 89.1728 89.3206C89.0703 89.136 88.9297 89.0437 88.751 89.0437Z" fill="#003C6A"/>
<path d="M87.5283 68.8196L90.9585 60.7245H84.0982L87.5283 68.8196Z" fill="#003C6A"/>
<rect x="86.0829" y="54.8828" width="2.89057" height="6.28714" fill="#003C6A"/>
<rect x="86.0829" y="48.1833" width="2.89057" height="4.94821" fill="#003C6A"/>
<rect x="86.0829" y="42.4875" width="2.89057" height="3.94526" fill="#003C6A"/>
<rect x="86.0829" y="37.5901" width="2.89057" height="3.14669" fill="#003C6A"/>
</g>
</svg>
